<svg version="1.2" xmlns="http://www.w3.org/2000/svg" viewBox="0 0 503 184" width="503" height="184">
	<title>Proyecto nuevo</title>
	<style>
		.s0 { fill: #8acf98 } 
		.s1 { fill: #2dad9e } 
		.s2 { fill: #c3e395 } 
		.s3 { fill: #5fbf9b } 
		.s4 { fill: #aada97 } 
		.s5 { fill: #dcec94 } 
		.s6 { fill: #46b69d } 
		.s7 { fill: #78c89a } 
		.s8 { fill: #9dd697 } 
		.s9 { fill: #b6df96 } 
		.s10 { fill: #39b29d } 
		.s11 { fill: #cfe894 } 
		.s12 { fill: #6bc49a } 
		.s13 { fill: #52bb9c } 
		.s14 { fill: #e8f193 } 
		.s15 { fill: #91d198 } 
		.s16 { fill: #ffffff } 
	</style>
	<g id="Capa 1">
		<path id="Path 1" class="s0" d="m204.3 83.3c-0.5 1.1-0.2 2.4 1.2 3.7l2 2.1c-29.2-0.1-31 0.1-32.9 1.8-1.6 1.5-2.2 3.4-2.4 8.3-0.3 5.2 0 6.8 1.7 9.1l2.1 2.7c29.7 0 31.2 0.2 33 2 1.5 1.5 2 3.3 2 7 0 3.2-0.6 5.5-1.6 6.5-1.2 1.2-4.6 1.5-16.7 1.5l-15.2 0.1c3.9-4.4 4.2-5.3 3.2-5.7-0.6-0.3-2.7 0.9-4.5 2.7-1.8 1.9-3.2 3.8-3.2 4.4 0 0.6 1.4 2.5 3.2 4.4 1.8 1.8 3.9 3 4.5 2.7 1-0.4 0.7-1.3-1-3.1l-2.2-2.6c30.2 0.1 31.7-0.1 33.5-1.9 1.1-1.1 2.3-3.2 2.6-4.7 0.4-1.6 0.4-4.8 0.1-7.3-0.4-2.6-1.5-5.3-2.7-6.5-1.8-1.8-3.7-2-17.8-2.3-10.2-0.2-16.2-0.8-17-1.5-0.7-0.7-1.3-3.3-1.2-5.9 0-2.7 0.4-5.7 0.9-6.8 0.8-1.9 1.9-2 16.7-2l15.9-0.1c-4.8 3.9-5.3 4.9-4.6 5.6 0.8 0.7 2.5-0.3 5.4-3.2l4.2-4.3c-7.9-7.9-8.5-8.3-9.2-6.7z"/>
		<path id="Path 2" class="s1" d="m443.8 90c-0.2 0.6-1.8 8.6-3.5 17.8-1.8 9.2-3.5 17.7-3.8 18.9-0.5 2.1-0.2 2.3 4 2.3 3.9 0 4.6-0.3 4.9-2.2 0.3-1.3 0.9-4.1 1.3-6.3 0.6-2.9 1.4-4 2.7-4 1.3 0 2.5 1.8 4.2 6.3l2.4 6.2h10l-6.7-13.5c4.8-3.1 7-5.6 7.9-7.5 1-1.9 1.8-5.1 1.8-7 0-1.9-0.9-5-2-6.7-1.6-2.7-3-3.5-7-4.3-2.8-0.5-7.5-1-10.5-1-2.9 0-5.5 0.5-5.7 1z"/>
		<path id="Path 3" class="s2" d="m151.5 45.3c-0.2 0.6-1.8 9-3.5 18.5-1.6 9.4-3 17.9-3 18.7 0 1.1 1.1 1.5 4 1.5 2.2 0 4.2-0.3 4.4-0.7 0.2-0.5 1-5.1 1.7-10.3 0.7-5.2 1.5-9.8 1.8-10.3 0.3-0.4 2.4 4.1 4.6 10l4 10.8 9 0.6c2.9-15.2 4.5-24 5.4-29.4 0.9-5.4 1.4-10 1.1-10.3-0.3-0.2-2.2-0.4-4.3-0.4-2 0-3.7 0.1-3.7 0.3 0 0.1-0.9 5.4-2 11.7-1.1 6.3-2.1 11.6-2.2 11.7-0.2 0.1-2-5.2-4.1-11.8l-3.7-11.9c-7.2 0-9.2 0.5-9.5 1.3z"/>
		<path id="Path 4" class="s3" d="m299.4 89.8c-0.6 0.4-5.2 9.3-10.3 19.7-5 10.5-9.1 19.1-9.1 19.3 0 0.1 2 0.2 4.5 0.2 4.2 0 4.6-0.3 6.3-3.5 1.7-3.5 1.8-3.5 8-3.5 5.5 0 6.2 0.2 6.2 2 0 1.1 0.2 2.7 0.5 3.5 0.3 1 1.9 1.5 5 1.5 4.1 0 4.5-0.2 4-2.2-0.3-1.3-1.6-10-3-19.3-1.5-9.6-3.1-17.3-3.8-17.7-0.7-0.4-2.5-0.8-4.2-0.8-1.6 0-3.5 0.4-4.1 0.8z"/>
		<path id="Path 5" class="s4" d="m75.5 90.3c-0.3 0.6-0.6 2.5-0.8 4.2-0.2 2.9-0.1 3 4.5 3.3 3.1 0.1 4.8 0.7 4.8 1.5 0 0.6-1.1 7.5-2.5 15.2-1.4 7.7-2.5 14.1-2.5 14.3 0 0.1 2 0.2 4.5 0.2h4.5c1.4-7.4 2.6-14.3 3.7-20.2l1.8-10.7c9.4-0.6 10-0.9 10.6-3.2 0.3-1.5 0.4-3.4 0.3-4.3-0.4-1.4-2.3-1.6-14.4-1.6-10.3 0-14.2 0.3-14.5 1.3z"/>
		<path id="Path 6" class="s5" d="m80.5 46.3c-0.2 1.2-1.8 9.9-3.4 19.4-1.5 9.5-2.9 17.4-3 17.7 0 0.3 1.9 0.6 4.4 0.6h4.5c0.9-6.6 1.3-9.3 1.6-10.2 0.3-1.4 1.5-1.8 5.6-1.8 3.1 0 6.8-0.7 8.7-1.8 1.9-0.9 4.4-3 5.5-4.5 1.3-1.7 2.3-5 2.5-8 0.3-3.7 0-6-1.2-7.9-0.9-1.6-3.3-3.5-5.2-4.3-2.1-0.9-6.6-1.5-11.5-1.5-7.5 0-8 0.1-8.5 2.3z"/>
		<path id="Path 7" class="s6" d="m368.5 90.3c-0.2 0.6-1.8 8.9-3.5 18.2-1.6 9.3-3 17.8-3 18.8 0 1.3 0.9 1.7 4 1.7 2.9 0 4.1-0.5 4.5-1.7 0.3-1 1.1-5.7 1.8-10.6 0.7-4.8 1.5-8.7 1.9-8.7 0.5 0 2.5 4.7 4.5 10.5l3.8 10.6 9.5-0.1c1.7-11.2 3.2-20 4.4-26.7 1.6-9.6 1.8-12.4 0.8-12.8-0.6-0.3-2.6-0.5-4.2-0.5-2.5 0-3.1 0.5-3.5 2.8-0.2 1.5-1.2 7-2.1 12.2-0.8 5.2-1.6 9.6-1.7 9.7-0.1 0.1-1.8-4.8-3.7-10.9-1.9-6.2-4.1-11.8-4.8-12.5-0.6-0.7-2.8-1.3-4.7-1.3-2 0-3.8 0.6-4 1.3z"/>
		<path id="Path 8" class="s7" d="m223.7 90.2c-0.1 0.4-1.7 8.3-3.4 17.5-1.8 9.2-3.5 17.8-3.8 19-0.5 2.1-0.2 2.3 4 2.3h4.5l2.2-11.5c8.7-0.2 12.7-0.9 14.3-1.7 1.7-0.9 3.7-2.6 4.6-3.9 0.9-1.3 2.1-4.2 2.8-6.4 0.7-2.6 0.7-5.2 0.1-7.5-0.5-1.9-1.9-4.4-3.1-5.5-1.7-1.6-3.9-2.1-12.1-2.5-5.5-0.3-10.1-0.2-10.1 0.2z"/>
		<path id="Path 9" class="s8" d="m112.5 90.3c-0.3 0.6-1.9 9.7-3.7 20l-3.3 18.8c8.9-0.6 9-0.6 9.7-5.1 0.4-2.5 1-5.5 1.3-6.7 0.5-2.1 1.1-2.3 7-2.3 6 0 6.6-0.2 7.5-2.5 0.6-1.4 1-3.2 1-4 0-1.2-1.4-1.5-6.5-1.5h-6.5c0-4.7 0.2-6.7 0.5-7.5 0.4-1.2 2.3-1.5 8.5-1.5h8c1-5 1-7.1 0.6-7.7-0.4-0.9-3.9-1.3-12.1-1.3-8.3 0-11.7 0.3-12 1.3z"/>
		<path id="Path 10" class="s9" d="m47.1 90.9c-1.9 1-4.4 3.2-5.6 4.8-1.3 1.7-2.8 6.5-3.9 12.8-1 5.5-1.5 11-1.2 12.2 0.3 1.3 1.8 3.7 3.3 5.4 2.3 2.6 3.7 3.2 8.3 3.6q5.5 0.5 9.5-1.1c2.2-0.8 4.7-2.3 5.6-3.3 0.9-1 2.1-4.7 2.7-8.3 0.7-3.6 1.2-7.5 1.2-8.8 0-2.1-0.4-2.2-7-2.2-6.7 0-7 0.1-8 2.7-0.6 1.6-0.8 3.4-0.5 4 0.3 0.7 1.7 1.3 3.2 1.3 2.5 0 2.8 0.4 2.5 3-0.1 2.1-0.9 3.3-2.7 4-1.4 0.5-3.4 1-4.5 1-1.1 0-2.7-1-3.5-2.3-1.2-1.8-1.3-3.4-0.4-8.7 0.6-3.6 1.5-7.6 2-9 0.5-1.4 2-3.1 3.4-3.8 1.4-0.6 3.3-1.2 4.2-1.2 1 0 3.3 0.6 5.2 1.3 3.1 1.1 3.4 1 5.7-1.8 1.8-2.3 2.1-3.2 1.1-4.1-0.6-0.6-2.8-1.7-4.7-2.3-1.9-0.6-5.5-1.1-8-1.1-2.5 0-6 0.8-7.9 1.9z"/>
		<path id="Path 11" class="s10" d="m409 91.3c-0.5 1.2-2.1 9-3.5 17.2-1.4 8.3-2.8 16.2-3 17.8l-0.5 2.7h26c0.8-4.7 0.8-6.5 0.5-7-0.3-0.5-4.1-1-8.5-1-6 0-7.9-0.3-7.6-1.2 0.2-0.7 0.7-2.5 1-4 0.6-2.7 0.8-2.8 7.6-2.8 5.3 0 7.1-0.4 7.5-1.5 0.3-0.8 0.5-2.6 0.5-4 0-2.4-0.2-2.5-6.8-2.5h-6.7l0.5-7 16.4-0.5c1.1-5.4 1.2-7.3 1-7.7-0.2-0.5-5.6-0.8-11.9-0.8-11 0-11.6 0.1-12.5 2.3z"/>
		<path id="Path 12" class="s11" d="m117.6 44.8c-0.2 0.4-1.8 8.5-3.5 18-1.7 9.4-3.1 18.1-3.1 19.2 0 1.9 0.7 2 12.5 2 10.2 0 12.6-0.3 13-1.5 0.3-0.8 0.5-2.6 0.5-4 0-2.5-0.1-2.5-8-2.5-7 0-8-0.2-8-1.7 0-1 0.2-2.8 0.5-4 0.5-2.1 1.1-2.3 7.7-2.5l7.3-0.3 1-7.5c-13.3 0-13.5-0.1-13.5-2.5 0-1.4 0.2-3.2 0.5-4 0.4-1.2 2.2-1.5 8.3-1.5h7.7c1.2-5 1.5-6.8 1.5-7.2 0-0.5-5.4-0.8-12-0.8-6.5 0-12.1 0.3-12.4 0.8z"/>
		<path id="Path 13" class="s12" d="m260.4 89.8c-0.6 0.4-2.6 8.6-4.3 18.2-1.7 9.6-3.1 18.3-3.1 19.3 0 1.5 1.2 1.7 11.8 1.7h11.7c1.2-4.6 1.3-6.5 1-7-0.3-0.5-3.6-1-7.5-1h-7c0.8-4.3 1.9-10.9 3-17.5 1.2-6.6 1.9-12.6 1.6-13.2-0.4-0.7-1.8-1.3-3.3-1.3-1.6 0-3.3 0.4-3.9 0.8z"/>
		<path id="Path 14" class="s13" d="m327.5 91.3c-0.2 1.2-1.8 9.9-3.4 19.4-1.5 9.5-2.9 17.4-3 17.7 0 0.3 1.9 0.6 4.4 0.6h4.5c2.6-18.2 3.5-23 3.7-22.5 0.2 0.6 2.1 5.7 4.1 11.5l3.8 10.5c8.9 0.5 9.5 0.2 9.9-1.7 0.3-1.3 1.9-10 3.5-19.3 1.6-9.3 2.7-17.3 2.5-17.7-0.3-0.5-2.1-0.8-4-0.8-1.9 0-3.7 0.3-4 0.8-0.2 0.4-1.2 5.8-2.2 12-1 6.2-2 11.2-2.3 11.2-0.3 0-2-4.8-3.8-10.7-1.8-6-3.8-11.4-4.5-12.1-0.7-0.7-2.9-1.2-4.9-1.2-3.1 0-3.9 0.4-4.3 2.3z"/>
		<path id="Path 15" class="s14" d="m51 44c-1.9 0.5-4.6 1.8-6 2.8-1.4 1.1-3.3 3.2-4.2 4.8-1 1.6-2.5 6.7-3.4 11.4-0.9 5.1-1.3 9.9-0.9 12 0.4 1.9 1.9 4.7 3.4 6.1 1.4 1.5 4.4 2.9 6.6 3.3 2.2 0.4 5.8 0.3 8-0.3 2.2-0.5 5.1-1.8 6.5-2.9 1.4-1 3.4-3.6 4.4-5.8 1-2.1 2.4-7.3 3.1-11.4 0.7-4.1 1-8.9 0.7-10.5-0.3-1.6-1.2-4.1-2.1-5.4-0.9-1.3-2.3-2.7-3.1-3.1-0.8-0.4-3.3-1-5.5-1.3-2.2-0.3-5.6-0.1-7.5 0.3z"/>
		<path id="Path 16" class="s15" d="m149.4 90.4c-1.7 0.8-3.9 2.7-5 4.3-1 1.6-1.8 4.6-1.9 7 0 3.1 0.6 4.8 2.5 6.8 1.4 1.4 4.7 3.4 7.5 4.4 2.7 1.1 5.4 2.6 6 3.6 0.8 1.3 0.4 2.1-1.5 3.6-1.4 1.1-3.4 2-4.5 2-1.1-0.1-3.8-1-6-2.1l-4-2c-3.5 3.5-4.5 5.1-4.5 5.7 0 0.7 1.5 2.3 3.2 3.5 2.2 1.4 5.4 2.3 9.3 2.6 4.1 0.3 7.2-0.1 9.7-1.2 2.1-0.9 4.7-3.1 5.8-4.9 1.1-1.7 2-4.9 2-7 0-2.6-0.8-4.6-2.8-6.8-1.5-1.6-4.3-3.5-6.2-4.1-1.9-0.6-4.5-1.6-5.8-2.4-1.2-0.8-2.2-1.9-2.2-2.4 0-0.6 0.7-1.7 1.6-2.5 0.8-0.8 2.9-1.5 4.5-1.5 1.6 0 4.4 0.7 6.1 1.6 3.2 1.5 3.3 1.5 5.5-1.3 1.2-1.5 2.1-3.3 1.9-3.8-0.1-0.6-1.6-1.7-3.2-2.4-1.6-0.8-5.6-1.6-8.9-1.8-3.7-0.2-7.2 0.2-9.1 1.1z"/>
		<path id="Path 17" class="s16" d="m50.1 53.8c-1.5 1.2-2.6 3.9-3.6 9.2-0.8 4.1-1.1 8.5-0.7 9.8 0.4 1.4 1.7 2.6 3.2 2.9 1.4 0.3 3.5 0.2 4.7-0.1 1.3-0.3 2.9-2.1 3.7-3.8 0.8-1.8 1.8-6.3 2.3-9.9 0.6-5.4 0.5-7-0.7-8.3-0.8-0.9-2.7-1.7-4.1-1.6-1.5 0-3.6 0.8-4.8 1.8zm37.3 4.2l-0.9 6c7.6 0 8.8-0.5 10-2.2 0.8-1.3 1.5-3.5 1.5-5 0-1.8-0.7-3.2-2-3.8-1.1-0.5-3.3-1-4.9-1-2.7 0-2.9 0.3-3.7 6zm142.7 41.2c-0.1 0.7-0.4 3.5-0.8 6.2l-0.8 5c7.1-1 9.5-2.1 10.3-3.1 0.7-1 1.2-3.4 1-5.3-0.3-3.4-0.4-3.5-5-3.8-3.3-0.2-4.7 0.1-4.7 1zm219.9 0.6c0 0.9-0.3 3.2-0.7 5l-0.8 3.2c6.5 0.1 8.6-0.6 9.7-1.7 1-1 1.8-3 1.8-4.5 0-1.6-0.6-3-1.5-3.3-0.8-0.3-3.1-0.5-5-0.5-2.7 0-3.5 0.4-3.5 1.8zm-151.3 8l-2.4 5.7c5.6 0.4 7.3 0.4 7.4 0.3 0.1-0.2 0-2.9-0.3-6-0.3-3.2-0.9-5.8-1.3-5.8-0.5 0-2 2.6-3.4 5.8z"/>
	</g>
</svg>