<svg id="Capa_1" data-name="Capa 1" xmlns="http://www.w3.org/2000/svg" xmlns:xlink="http://www.w3.org/1999/xlink" width="198.13mm" height="76.58mm" viewBox="0 0 561.62 217.08"><defs><style>.cls-1{fill:none;}.cls-2{fill:#185d85;}.cls-3{fill:#3188c9;}.cls-4{fill:#ef7e22;}.cls-5{fill:#fec708;}.cls-6{fill:#4ebbb9;}.cls-7{clip-path:url(#clip-path);}.cls-8{fill:#fff;}.cls-9{fill:#4c59a4;}</style><clipPath id="clip-path"><rect class="cls-1" x="251.55" y="5" width="318.72" height="210.08" transform="translate(821.83 220.08) rotate(-180)"/></clipPath></defs><rect class="cls-2" x="195.7" y="153.1" width="102.06" height="7.92" transform="translate(403.78 -89.67) rotate(90)"/><rect class="cls-3" x="237.34" y="19.41" width="18.77" height="7.92" transform="translate(270.09 -223.36) rotate(90)"/><rect class="cls-4" x="234.92" y="40.6" width="23.62" height="7.92" transform="translate(291.29 -202.16) rotate(90)"/><rect class="cls-5" x="234.31" y="64.83" width="24.83" height="7.92" transform="translate(315.51 -177.94) rotate(90)"/><rect class="cls-6" x="234.31" y="89.65" width="24.83" height="7.92" transform="translate(153.11 340.34) rotate(-90)"/><path d="M85.89,97.23H71.82L44.45,52.33v44.9H30.39V29H44.45L71.87,74V29h14Z"/><path d="M136.7,83.17H112l-4.68,14.06h-15L117.81,29h13l25.55,68.25h-15ZM115.84,71.78H132.9l-8.58-25.55Z"/><path d="M176.82,73.19v24H162.76V29h26.63a30.73,30.73,0,0,1,13.52,2.82,20.76,20.76,0,0,1,9,8A22.3,22.3,0,0,1,215,51.58q0,10-6.87,15.82t-19,5.79Zm0-11.39h12.57q5.58,0,8.5-2.63c2-1.75,2.93-4.25,2.93-7.5a11.25,11.25,0,0,0-2.95-8.11,11.07,11.07,0,0,0-8.15-3.19h-12.9Z"/><path d="M46.73,132.27H38.24v23.1H32.52v-23.1H24.14v-4.62H46.73Z"/><path d="M60.28,139.93a15.2,15.2,0,0,0-2-.15c-2.09,0-3.45.7-4.1,2.11v13.48H48.7v-20.6h5.2l.15,2.46a5.1,5.1,0,0,1,4.59-2.84,5.57,5.57,0,0,1,1.71.25Z"/><path d="M74.6,155.37a6.36,6.36,0,0,1-.55-1.84,6.67,6.67,0,0,1-5.2,2.23,7.28,7.28,0,0,1-5-1.76,5.62,5.62,0,0,1-2-4.41,5.82,5.82,0,0,1,2.43-5q2.43-1.76,7-1.77h2.53v-1.18a3.38,3.38,0,0,0-.73-2.29,2.89,2.89,0,0,0-2.31-.86,3.28,3.28,0,0,0-2.18.67,2.27,2.27,0,0,0-.8,1.83H62.3a5.5,5.5,0,0,1,1.11-3.31,7.14,7.14,0,0,1,3.12-2.39,11.36,11.36,0,0,1,4.53-.87,9,9,0,0,1,6,1.91,6.7,6.7,0,0,1,2.23,5.38v8.93a10,10,0,0,0,.82,4.44v.32Zm-4.55-3.82A4.68,4.68,0,0,0,72.3,151a3.56,3.56,0,0,0,1.52-1.45V146h-2c-2.76,0-4.22,1-4.4,2.85l0,.32a2.21,2.21,0,0,0,.72,1.7A2.82,2.82,0,0,0,70.05,151.55Z"/><path d="M89,134.77l.17,2.38A7.19,7.19,0,0,1,95,134.39a6,6,0,0,1,4.88,1.92c1.07,1.28,1.61,3.2,1.64,5.75v13.31H96.05V142.2a3.58,3.58,0,0,0-.76-2.55,3.44,3.44,0,0,0-2.53-.79,3.8,3.8,0,0,0-3.49,2v14.53h-5.5v-20.6Z"/><path d="M117.2,149.68a1.79,1.79,0,0,0-1-1.59,11.51,11.51,0,0,0-3.21-1q-7.35-1.55-7.35-6.24a5.67,5.67,0,0,1,2.27-4.58,9.18,9.18,0,0,1,6-1.84,9.89,9.89,0,0,1,6.27,1.85,5.81,5.81,0,0,1,2.35,4.79H117a2.71,2.71,0,0,0-.76-1.95,3.24,3.24,0,0,0-2.38-.77,3.31,3.31,0,0,0-2.16.63,2,2,0,0,0-.76,1.6,1.71,1.71,0,0,0,.87,1.48,9.21,9.21,0,0,0,2.92,1,24,24,0,0,1,3.47.92c2.91,1.07,4.36,2.91,4.36,5.54a5.38,5.38,0,0,1-2.42,4.56,10.42,10.42,0,0,1-6.24,1.75,10.83,10.83,0,0,1-4.6-.93,7.76,7.76,0,0,1-3.16-2.53,5.89,5.89,0,0,1-1.14-3.48h5.22a2.85,2.85,0,0,0,1.09,2.25,4.29,4.29,0,0,0,2.7.78,4,4,0,0,0,2.39-.6A1.86,1.86,0,0,0,117.2,149.68Z"/><path d="M145,145.26a12.36,12.36,0,0,1-2.16,7.63,6.94,6.94,0,0,1-5.84,2.87,6.4,6.4,0,0,1-5-2.18v9.72H126.4V134.77h5.11l.19,2a6.46,6.46,0,0,1,5.22-2.4,7,7,0,0,1,5.92,2.82Q145,140,145,145Zm-5.5-.4a8.09,8.09,0,0,0-1-4.43,3.33,3.33,0,0,0-3-1.57,3.59,3.59,0,0,0-3.56,2v8.44a3.66,3.66,0,0,0,3.6,2C138.13,151.32,139.45,149.17,139.45,144.86Z"/><path d="M147.81,144.88a12.17,12.17,0,0,1,1.19-5.46,8.67,8.67,0,0,1,3.39-3.72,10,10,0,0,1,5.16-1.31,9.37,9.37,0,0,1,6.8,2.55,10.26,10.26,0,0,1,3,6.93l0,1.41a10.79,10.79,0,0,1-2.64,7.61,10.25,10.25,0,0,1-14.22,0,11,11,0,0,1-2.66-7.77Zm5.51.39a7.73,7.73,0,0,0,1.1,4.49,4,4,0,0,0,6.29,0,8.41,8.41,0,0,0,1.12-4.91,7.6,7.6,0,0,0-1.12-4.46,3.65,3.65,0,0,0-3.16-1.58,3.6,3.6,0,0,0-3.13,1.57A8.62,8.62,0,0,0,153.32,145.27Z"/><path d="M182.61,139.93a15.2,15.2,0,0,0-2-.15q-3.12,0-4.09,2.11v13.48H171v-20.6h5.19l.16,2.46a5.1,5.1,0,0,1,4.59-2.84,5.57,5.57,0,0,1,1.71.25Z"/><path d="M193.11,129.7v5.07h3.53v4h-3.53v10.28a2.48,2.48,0,0,0,.44,1.64,2.2,2.2,0,0,0,1.68.49,8.71,8.71,0,0,0,1.62-.13v4.17a11.35,11.35,0,0,1-3.34.5c-3.86,0-5.82-1.95-5.9-5.85v-11.1h-3v-4h3V129.7Z"/><path d="M209.5,155.76a10.1,10.1,0,0,1-7.38-2.79,9.86,9.86,0,0,1-2.85-7.4V145a12.46,12.46,0,0,1,1.2-5.55,8.78,8.78,0,0,1,3.4-3.77,9.57,9.57,0,0,1,5-1.32,8.55,8.55,0,0,1,6.65,2.66q2.43,2.67,2.43,7.56v2.25H204.85a5.14,5.14,0,0,0,1.61,3.24,4.89,4.89,0,0,0,3.4,1.22,5.93,5.93,0,0,0,5-2.31l2.7,3a8.17,8.17,0,0,1-3.35,2.73A10.9,10.9,0,0,1,209.5,155.76Zm-.63-16.93a3.45,3.45,0,0,0-2.66,1.11,5.71,5.71,0,0,0-1.3,3.17h7.65v-.44a4.05,4.05,0,0,0-1-2.84A3.52,3.52,0,0,0,208.87,138.83Z"/><path d="M30,170.8l10.23,24.47L50.48,170.8H53.6v27.72H51.26V186.45l.19-12.38L41.13,198.52H39.32L29,174.17l.19,12.2v12.15H26.89V170.8Z"/><path d="M73.66,195.91c-1.37,2-3.56,3-6.57,3a6.38,6.38,0,0,1-5-1.91,8.39,8.39,0,0,1-1.76-5.67v-13.4H62.6V191q0,5.88,4.76,5.88,5,0,6.27-4.09V177.92h2.28v20.6H73.7Z"/><path d="M84.7,198.52H82.41V169.27H84.7Z"/><path d="M94.74,172.64v5.28H99v1.86H94.74v13.75a4.32,4.32,0,0,0,.62,2.55,2.39,2.39,0,0,0,2.06.84,13.66,13.66,0,0,0,1.85-.19l.1,1.85a7.31,7.31,0,0,1-2.44.32,4.06,4.06,0,0,1-3.41-1.36,6.41,6.41,0,0,1-1.07-4V179.78H88.66v-1.86h3.79v-5.28Z"/><path d="M103.91,172a1.52,1.52,0,0,1,.42-1.09,1.47,1.47,0,0,1,1.14-.45,1.52,1.52,0,0,1,1.15.45,1.49,1.49,0,0,1,.43,1.09,1.46,1.46,0,0,1-.43,1.08,1.55,1.55,0,0,1-1.15.43,1.46,1.46,0,0,1-1.56-1.51Zm2.68,26.55h-2.28v-20.6h2.28Z"/><path d="M115.17,177.92l.07,3.35a7.66,7.66,0,0,1,2.86-2.8,7.84,7.84,0,0,1,3.81-.93q4.88,0,6.19,4a7.72,7.72,0,0,1,3-3,8.19,8.19,0,0,1,4.08-1q6.62,0,6.76,7.23v13.75H139.6V184.94a6.12,6.12,0,0,0-1.19-4.09,4.84,4.84,0,0,0-3.82-1.33,6,6,0,0,0-4.15,1.59,5.62,5.62,0,0,0-1.89,3.78v13.63h-2.28V184.77a5.63,5.63,0,0,0-1.25-4,5,5,0,0,0-3.78-1.3,5.74,5.74,0,0,0-3.69,1.23,7.18,7.18,0,0,0-2.29,3.64v14.13H113v-20.6Z"/><path d="M146.71,187.91a12.1,12.1,0,0,1,1.15-5.35,8.66,8.66,0,0,1,8-5,8.47,8.47,0,0,1,6.66,2.88,11.07,11.07,0,0,1,2.56,7.65v.47a12.18,12.18,0,0,1-1.16,5.38,8.59,8.59,0,0,1-3.24,3.69,8.94,8.94,0,0,1-4.78,1.29,8.5,8.5,0,0,1-6.66-2.88,11.09,11.09,0,0,1-2.56-7.65Zm2.29.63a9.32,9.32,0,0,0,1.91,6.07,6.48,6.48,0,0,0,10,0,9.7,9.7,0,0,0,1.91-6.26v-.44a10.4,10.4,0,0,0-.88-4.32,7,7,0,0,0-2.45-3,6.34,6.34,0,0,0-3.62-1.07,6.1,6.1,0,0,0-5,2.39,9.68,9.68,0,0,0-1.92,6.25Z"/><path d="M169.21,188a12.42,12.42,0,0,1,2.14-7.65,6.92,6.92,0,0,1,5.82-2.84,7.17,7.17,0,0,1,6.36,3.29V169.27h2.26v29.25h-2.13l-.09-2.74a7.37,7.37,0,0,1-6.44,3.12,6.86,6.86,0,0,1-5.74-2.86,12.44,12.44,0,0,1-2.18-7.74Zm2.3.4a10.78,10.78,0,0,0,1.58,6.22,5.13,5.13,0,0,0,4.46,2.27,6.14,6.14,0,0,0,6-3.71v-9.67a6.09,6.09,0,0,0-5.94-4,5.19,5.19,0,0,0-4.48,2.25C172.05,183.28,171.51,185.5,171.51,188.43Z"/><path d="M205.11,198.52a10.94,10.94,0,0,1-.44-2.87,7.93,7.93,0,0,1-3,2.4,9.31,9.31,0,0,1-3.94.85,6.89,6.89,0,0,1-4.8-1.65,5.39,5.39,0,0,1-1.84-4.19,5.49,5.49,0,0,1,2.5-4.76,12,12,0,0,1,7-1.76h4.13V184.2a4.49,4.49,0,0,0-1.36-3.47,5.6,5.6,0,0,0-4-1.27,6.22,6.22,0,0,0-3.94,1.22,3.62,3.62,0,0,0-1.56,2.93l-2.29,0a5.3,5.3,0,0,1,2.29-4.25,8.78,8.78,0,0,1,5.62-1.8,8,8,0,0,1,5.43,1.72,6.18,6.18,0,0,1,2,4.81v9.75a12,12,0,0,0,.63,4.47v.23ZM198,196.88a7.64,7.64,0,0,0,4.09-1.1,6.47,6.47,0,0,0,2.61-2.95V188.3h-4.07a10.21,10.21,0,0,0-5.33,1.24,3.75,3.75,0,0,0-1.93,3.33,3.67,3.67,0,0,0,1.29,2.87A4.85,4.85,0,0,0,198,196.88Z"/><path d="M215.86,198.52h-2.29V169.27h2.29Z"/><g class="cls-7"><rect class="cls-1" x="251.55" y="3.67" width="310.06" height="234.13" transform="translate(813.17 241.47) rotate(-180)"/><path class="cls-3" d="M283.53,190.21H460.17l-.93-5.23c0-.15-2.75-17.09,4.54-38.67,6.82-20.2,24-48.88,67.37-70.81l16.69-8.45H283.53v4.86h244c-43.74,22.58-61.31,52-68.34,72.84s-5.2,37.65-4.79,40.61H283.53Z"/><path class="cls-3" d="M244.36,29.83H293v27.1h-9.29V73.42h-39.3Zm35.05,22.85h9.29V34.08H248.61v35.1h30.8Z"/><path class="cls-4" d="M91.85,190.52V67.05H311.17c47,1.47,77.41,14.23,94.7,24.68,16.72,10.11,24.61,19.9,26.41,22.33a57.78,57.78,0,0,1,15.08,9.19c10.19,8.66,15,19.61,13.86,31.66l0,.17c-2.43,13.89-14.17,24.52-34,30.75a123.91,123.91,0,0,1-28.88,5.22h0Zm352.85-64a53.76,53.76,0,0,0-14.5-8.76l-.65-.24-.38-.56c-.07-.11-7.56-10.85-25.76-21.8C386.59,85.1,356.92,72.74,311.07,71.3H96.1v115l302.12.53c1.74-.09,53.54-2.93,58.78-32.38C458,143.74,453.83,134.37,444.7,126.57Z"/><path class="cls-4" d="M394.4,104.24l12.77,12.14,14.15.53a77.05,77.05,0,0,0-12.67-11.83Z"/><path class="cls-4" d="M385.26,103.67l12.82,12.71,5.67.14s-7.11-7.35-13.13-12.28Z"/><path class="cls-5" d="M400.58,133.67s-52.21-5.1-87.64-47.25c15.26,8.23,30.52,15.39,45.77,23.62C372.67,117.56,386.62,126.14,400.58,133.67Z"/><path class="cls-5" d="M183.31,64.92l2.05-.07c.66,0,66.58-2.07,125.51,19.8a472.57,472.57,0,0,1,53.28,24.18c37,19.79,59.26,39.16,66.18,57.57l0,0c.12.35,1.1,3.52-1.29,7.7-4.2,7.36-15.77,13-34.4,16.81l-.2,0-211.15.69ZM425.24,172.27c1.54-2.54,1.13-4.3,1.1-4.43C410.57,126.08,310.42,89,309.4,88.64,257.07,69.22,199.09,68.9,187.56,69.05V187.43L394,186.75C416.31,182.18,423.15,175.72,425.24,172.27Z"/><path class="cls-6" d="M128.56,191.92c-9.1-.15-13.72-4.81-13.74-13.85,0-19.39,0-39.86,0-62.58,0-9.4,4.57-14,13.92-14h44.38c41.15,0,83.7,0,125.55-.06h.07c7.85,0,15,2.55,21.83,7.81a2.44,2.44,0,0,1,.29.27l7.39,8.27a2.85,2.85,0,0,1,.25.33c12.75,21.67,14.24,44.49,14.12,61.95,0,6.09-4,10.91-9.2,11.19-7.19.41-45.4.26-65.92.19l-10.46,0c-14.9,0-27.41.06-39.51.12s-24.43.13-39.09.13a2.1,2.1,0,0,1-1.53-.65,2.14,2.14,0,0,1-.6-1.54c.4-13.58-5.31-21.87-15.68-22.73a17.39,17.39,0,0,0-13.06,3.84c-5.45,4.45-7.45,10.45-6.3,18.9a2.14,2.14,0,0,1-2.11,2.41h-6.78Q130.45,192,128.56,191.92Zm16.31-24.59a21.72,21.72,0,0,1,16.1-4.78c12.14,1,19.35,10.26,19.59,24.9,13.74,0,25.52-.07,36.93-.12,12.11-.07,24.63-.13,39.54-.13l10.47,0c19,.07,58.61.22,65.67-.18,3.22-.18,5.17-3.69,5.19-7,.12-16.87-1.3-38.87-13.43-59.58l-7.12-8c-6.09-4.65-12.16-6.82-19.08-6.82h-.06c-41.86.08-84.41.07-125.56.06H128.73c-7,0-9.66,2.64-9.67,9.73,0,22.71,0,43.18,0,62.56,0,6.72,2.78,9.5,9.56,9.61,2.25,0,4.52,0,6.92,0h1.24C136.15,179,138.8,172.28,144.87,167.33Z"/><path class="cls-6" d="M325.07,149.68c.11,4.86-2.12,6.62-6,5.1a11.09,11.09,0,0,1-4.81-3.23c-5.26-7.09-12.24-10.89-20.85-12.27a5,5,0,0,1-3.18-3.18c-1.36-6.46-2.31-13-3.42-19.51-.44-2.54.62-3.81,3.18-3.71,3.64.14,7.32.11,10.92.6,7.39,1,13.57,4.16,17.26,11C322.49,132.58,323.52,141.55,325.07,149.68Z"/><path class="cls-2" d="M250.57,187.25h63.57a6.7,6.7,0,0,0,1.64-.11,6.48,6.48,0,0,0,.47-1.63c.71-3.43.14-6.86-.47-10.49-.16-1-.33-2-.47-3l-.07-.11c-.09-.17-.21-.38-.32-.63-.92-2.09-2.94-3.07-5.3-4.05A66.44,66.44,0,0,0,292.23,163a22,22,0,0,1-11.54-4.6,61,61,0,0,0-17.23-9.62c-9.4-3.44-19.69-5.08-31.42-5-10.76.08-19.84,3.15-27.77,9.4l-2.63-3.34A48.39,48.39,0,0,1,232,139.49c12.26-.09,23,1.63,32.91,5.25A65.25,65.25,0,0,1,283.35,155a17.84,17.84,0,0,0,9.41,3.7,70.32,70.32,0,0,1,18.5,4.54c3,1.24,6,2.74,7.54,6.26a2,2,0,0,1,.11.2,4,4,0,0,1,.59,1.51c.13,1,.31,2.06.48,3.07.64,3.86,1.3,7.85.43,12.05-.84,4-2.19,5.13-6.27,5.13H250.57Zm64.78-15.18Z"/><path class="cls-8" d="M291.52,198.59a11.9,11.9,0,0,1-11.86-12.26,12.11,12.11,0,0,1,11.64-11.62,12,12,0,0,1,12.28,12.39A11.84,11.84,0,0,1,291.52,198.59Z"/><path class="cls-2" d="M291.48,200.72h0a14.23,14.23,0,0,1-10.09-4.37,13.93,13.93,0,0,1-3.86-10.08,14.09,14.09,0,0,1,24.18-9.43,14.44,14.44,0,0,1,4,10.34,13.92,13.92,0,0,1-13.95,13.54Zm-.18-23.89a10,10,0,0,0-9.52,9.55,9.7,9.7,0,0,0,2.68,7,10,10,0,0,0,7.1,3.06h.2a9.7,9.7,0,0,0,9.7-9.45,10.11,10.11,0,0,0-2.8-7.23,9.9,9.9,0,0,0-7.34-3Z"/><circle class="cls-3" cx="459.32" cy="94.24" r="7.05"/><circle class="cls-3" cx="438.71" cy="94.24" r="7.05"/><path class="cls-9" d="M405,157h3.57a2.38,2.38,0,0,1,0,4.76v0a1.19,1.19,0,0,0-1.19,1.19,1.17,1.17,0,0,0,.24.71,1.15,1.15,0,0,0,.68.45h.41a4.76,4.76,0,0,0-.14-9.52H405a1.19,1.19,0,0,0,0,2.38Z"/><path class="cls-9" d="M398.48,163a1.19,1.19,0,0,0-1.19-1.19h-19.5l-.94-1.88h3.43c.66,0,1.54.16,1.54-.5s-.88-1.89-1.54-1.89h-8.34a1.2,1.2,0,0,0,0,2.39h2.24l12.51,25a1.2,1.2,0,0,0,1.08.68,1.15,1.15,0,0,0,.91-.43.61.61,0,0,0,.12-.16l1.59-1.91,7.72-9.26.18-.21a1.19,1.19,0,0,0-1-1.84,1.2,1.2,0,0,0-.91.43h0l-8.35,10-9-18.08h18.31A1.19,1.19,0,0,0,398.48,163Z"/><path class="cls-8" d="M363.52,198.39a13.07,13.07,0,0,1-13-13.45c.18-6.89,6.17-12.72,12.76-12.73a13.14,13.14,0,0,1,13.47,13.58A13,13,0,0,1,363.52,198.39Z"/><path class="cls-9" d="M363.47,200.71h0a15.55,15.55,0,0,1-11.06-4.79,15.31,15.31,0,0,1-4.23-11c.22-8.12,7.12-15,15.09-15a15.46,15.46,0,0,1,11.42,4.67,15.77,15.77,0,0,1,4.37,11.33,15.25,15.25,0,0,1-15.28,14.84Zm-.2-26.18c-5.41,0-10.29,4.9-10.43,10.47a10.68,10.68,0,0,0,2.93,7.71,11,11,0,0,0,7.79,3.35h.21a10.63,10.63,0,0,0,10.64-10.36,11.05,11.05,0,0,0-3.07-7.92,10.84,10.84,0,0,0-8-3.25Z"/><path class="cls-8" d="M414.19,198.39a13.05,13.05,0,0,1-13-13.45c.17-6.89,6.16-12.72,12.75-12.73a13.13,13.13,0,0,1,13.47,13.58A13,13,0,0,1,414.19,198.39Z"/><path class="cls-9" d="M414.14,200.71h0a15.55,15.55,0,0,1-11.06-4.79,15.26,15.26,0,0,1-4.22-11c.21-8.12,7.12-15,15.08-15a15.46,15.46,0,0,1,11.42,4.67,15.78,15.78,0,0,1,4.38,11.33,15.25,15.25,0,0,1-15.29,14.84ZM414,174.53c-5.42,0-10.29,4.9-10.44,10.47a10.69,10.69,0,0,0,2.94,7.71,11,11,0,0,0,7.78,3.35h.22a10.63,10.63,0,0,0,10.63-10.36,11.05,11.05,0,0,0-3.07-7.92,10.82,10.82,0,0,0-8-3.25Z"/><path class="cls-9" d="M413.72,180.94l-1.81-3.58-3.3-6.54-1.4-2.77-1.39-2.77-1-2v0a1.57,1.57,0,0,0-1.4-.86,1.54,1.54,0,0,0-1.55,1.54,1.45,1.45,0,0,0,.15.66v0l1,2,1.4,2.77,1.4,2.78,4.48,8.87.88,1.75v-.37a1.45,1.45,0,0,0,.15.66v0a1.56,1.56,0,0,0,2.95-.69,1.59,1.59,0,0,0-.16-.69Z"/></g></svg>